<svg xmlns="http://www.w3.org/2000/svg" width="320" height="320" viewBox="0 0 320 320" version="1.1"><path d="M 172 71.671 C 159.665 72.908, 151.311 74.305, 148.955 75.523 C 144.565 77.793, 141.602 82.115, 136.593 93.551 C 132.039 103.952, 126.712 113, 125.144 113 C 124.726 113, 123.960 111.088, 123.442 108.750 C 122.688 105.348, 121.802 104.136, 119 102.677 C 115.994 101.111, 113.806 100.925, 103.500 101.356 C 85.522 102.108, 70 106.867, 70 111.627 C 70 112.447, 69.541 112.834, 68.980 112.488 C 67.375 111.496, 61.153 113.943, 59.583 116.185 C 58.800 117.302, 57.768 117.975, 57.289 117.679 C 55.711 116.704, 49.983 120.219, 49.406 122.517 C 48.989 124.182, 47.883 124.923, 45.170 125.357 C 43.152 125.681, 39.045 127.420, 36.043 129.223 C 29.021 133.440, 25 140.502, 25 148.614 L 25 154 21.351 154 L 17.702 154 18.419 186.250 C 18.814 203.988, 19.556 218.928, 20.068 219.450 C 20.646 220.039, 21.036 217.949, 21.095 213.950 C 21.467 188.601, 22.638 160.028, 23.333 159.333 C 24.552 158.114, 84.674 158.274, 85.897 159.500 C 86.446 160.050, 87.205 163.529, 87.584 167.231 L 88.272 173.961 81.595 176.957 C 73.611 180.539, 72.009 183.334, 71.983 193.718 C 71.959 203.627, 76.201 246.199, 77.121 245.279 C 77.553 244.847, 77.539 236.171, 77.091 225.997 C 76.088 203.230, 76.374 188.037, 77.858 185.265 C 78.490 184.084, 81.108 182.460, 83.847 181.551 C 86.523 180.662, 89.790 178.786, 91.106 177.383 C 93.182 175.170, 93.468 173.989, 93.257 168.496 L 93.014 162.160 96.012 163.656 C 102.017 166.652, 109 161.714, 109 154.473 C 109 150.560, 104.001 146, 99.712 146 C 96.006 146, 91 149.202, 91 151.573 C 91 152.358, 90.599 153, 90.108 153 C 89.617 153, 89.036 147.938, 88.816 141.750 C 88.370 129.168, 87.086 125.517, 81.972 122.279 L 78.869 120.315 85.877 119.157 C 89.732 118.521, 99.035 118, 106.552 118 L 120.219 118 119.810 121.500 C 119.318 125.712, 120.163 125.945, 122.538 122.250 C 123.511 120.737, 126.446 117.428, 129.061 114.895 C 132.673 111.396, 135.367 107.070, 140.273 96.895 C 143.824 89.528, 147.678 82.654, 148.836 81.621 C 151.552 79.198, 156.021 78.401, 175.250 76.911 C 190.759 75.709, 191 75.654, 191 73.345 C 191 71.073, 190.759 71.005, 183.250 71.160 C 178.988 71.248, 173.925 71.478, 172 71.671 M 145.819 98.927 C 144.472 99.987, 142.541 102.692, 141.528 104.938 C 139.104 110.313, 138.588 109.566, 140.615 103.615 C 141.501 101.017, 141.956 98.622, 141.627 98.293 C 140.629 97.296, 130.394 119.714, 126.008 132.500 C 119.432 151.675, 114.481 172.693, 117.810 167.307 C 118.196 166.683, 122.969 153.532, 128.418 138.082 C 133.866 122.632, 138.478 110.145, 138.667 110.333 C 138.855 110.522, 138.505 112.122, 137.889 113.889 C 135.889 119.626, 137.743 118.323, 140.853 111.807 C 146.332 100.328, 145.581 100.609, 170.001 100.898 C 190.663 101.144, 191 101.114, 191 99.074 C 191 97.040, 190.587 97, 169.635 97 C 150.052 97, 148.065 97.161, 145.819 98.927 M 96 109.667 C 96 116.144, 95.011 115.958, 93.369 109.173 L 92.238 104.500 92.119 109.750 C 91.968 116.412, 90.277 116.568, 89.406 110 C 88.545 103.516, 87.397 103.515, 87.847 109.999 C 88.043 112.834, 87.769 115, 87.213 115 C 86.118 115, 85.034 111.675, 85.014 108.250 C 85.006 107.013, 84.571 106, 84.047 106 C 83.491 106, 83.341 108.084, 83.686 111 C 84.329 116.427, 82.520 118.245, 81.448 113.250 C 80.200 107.440, 79.159 106.538, 79.717 111.750 C 80.432 118.434, 78.592 118.803, 77.226 112.250 L 76.236 107.500 76.118 112.250 C 75.996 117.149, 74.472 118.729, 73.706 114.750 C 73.297 112.629, 73.264 112.644, 73.121 115 C 73 117, 72.775 117.200, 72 116 C 71.218 114.790, 71.028 114.939, 71.015 116.775 C 70.997 119.495, 75.448 121.703, 77.505 119.996 C 79.953 117.965, 94.648 115.824, 107.247 115.663 L 119.993 115.500 119.997 111.872 C 119.998 109.877, 119.352 107.707, 118.559 107.049 C 117.362 106.056, 117.004 106.461, 116.446 109.438 C 115.435 114.824, 114.014 114.752, 113.893 109.309 L 113.786 104.500 112.834 108.750 C 111.568 114.402, 110.041 114.147, 109.832 108.250 C 109.665 103.542, 109.660 103.535, 109.265 107.500 C 108.709 113.075, 107.272 114.048, 106.488 109.380 C 105.476 103.357, 105.164 103.107, 105.079 108.250 C 105.036 110.862, 104.599 113, 104.108 113 C 103.618 113, 102.771 110.862, 102.226 108.250 L 101.236 103.500 101.103 108 C 100.938 113.552, 99.568 116.255, 98.652 112.835 C 98.309 111.551, 98.021 109.037, 98.014 107.250 C 98.006 105.463, 97.550 104, 97 104 C 96.450 104, 96 106.550, 96 109.667 M 167.500 111.043 C 154.131 111.897, 153.992 111.921, 156.550 112.957 C 157.677 113.414, 165.890 114.118, 174.800 114.522 L 191 115.256 191 112.628 C 191 110.053, 190.874 110.003, 184.750 110.170 C 181.313 110.264, 173.550 110.657, 167.500 111.043 M 62.689 116.183 C 60.002 117.162, 59.954 117.291, 61.594 119.104 C 65.030 122.901, 69.133 121.117, 67.393 116.582 C 66.705 114.789, 66.549 114.775, 62.689 116.183 M 172.493 124.948 C 162.754 127.503, 154.151 131.141, 147.314 135.597 C 139.619 140.613, 126.336 154.154, 122.145 161.257 C 115.102 173.194, 110.948 187.246, 111.134 198.500 L 111.234 204.500 112.670 198 C 117.003 178.392, 123.474 166.268, 136.421 153.500 C 145.624 144.424, 152.601 139.271, 151.380 142.451 C 150.977 143.503, 151.375 144, 152.622 144 C 153.710 144, 152.097 145.552, 148.663 147.810 C 137.467 155.172, 126.680 167.583, 122.012 178.472 C 118.397 186.905, 114.850 205.829, 117.150 204.407 C 117.618 204.118, 118 203.103, 118 202.151 C 118 198.135, 121.300 187.928, 125.122 180.122 C 128.095 174.049, 131.237 169.647, 136.541 164.122 C 144.678 155.647, 156.668 147.320, 155.518 150.943 C 155.111 152.227, 155.309 153, 156.047 153 C 156.696 153, 154.521 154.807, 151.213 157.016 C 139.044 165.143, 128.636 179.186, 124.596 192.932 C 122.723 199.306, 122.758 199, 123.889 199 C 124.377 199, 125.069 197.443, 125.426 195.540 C 125.783 193.638, 127.901 188.434, 130.132 183.976 C 137.014 170.227, 149.789 158.602, 164.659 152.561 C 169.962 150.406, 175.765 149.103, 187.750 147.377 C 193.639 146.529, 191.428 144.729, 185.064 145.189 C 181.530 145.445, 179.203 145.226, 179.314 144.648 C 179.416 144.114, 178.375 143.384, 177 143.026 C 174.764 142.445, 174.922 142.304, 178.500 141.699 C 180.700 141.327, 184.412 141.017, 186.750 141.011 C 190.803 141.001, 191 140.861, 191 138 C 191 134.655, 190.584 134.562, 181.424 135.871 C 177.763 136.395, 176.009 136.235, 175.134 135.298 C 174.467 134.584, 172.701 133.950, 171.211 133.889 C 167.741 133.747, 177.309 131.457, 185.250 130.528 L 191 129.856 191 126.428 L 191 123 185.250 123.055 C 182.088 123.085, 176.347 123.937, 172.493 124.948 M 61.253 126.515 C 52.396 128.534, 44.322 132.626, 39.312 137.635 C 32.666 144.282, 34.060 138.894, 40.868 131.620 C 43.863 128.420, 44.036 128.034, 41.853 129.418 C 36.253 132.966, 32 141.591, 32 149.400 L 32 153.312 47.159 152.656 C 55.496 152.295, 64.508 152, 67.185 152 L 72.051 152 70.515 149.029 C 69.153 146.396, 68.688 146.168, 66.424 147.029 C 58.147 150.176, 47.937 146.372, 49.367 140.673 C 51.337 132.824, 70.277 128.915, 74.573 135.471 C 75.983 137.623, 75.982 138.133, 74.564 140.877 C 73.073 143.759, 73.119 144.086, 75.498 147.593 C 76.874 149.620, 78 151.666, 78 152.140 C 78 152.613, 79.350 153, 81 153 L 84 153 83.994 144.750 C 83.988 134.526, 82.707 129.693, 79.437 127.550 C 75.921 125.247, 68.637 124.832, 61.253 126.515 M 137.667 125.667 C 136.478 126.855, 136.961 130.723, 138.452 131.960 C 139.251 132.623, 140.803 132.880, 141.901 132.531 C 144.409 131.735, 145.550 128.368, 143.960 126.452 C 142.723 124.961, 138.855 124.478, 137.667 125.667 M 139 128.393 C 139 129.159, 139.675 130.045, 140.500 130.362 C 141.520 130.753, 142 130.308, 142 128.969 C 142 127.885, 141.325 127, 140.500 127 C 139.675 127, 139 127.627, 139 128.393 M 97.280 150.088 C 94.724 151.038, 93.235 155.560, 94.706 157.905 C 95.257 158.782, 96.884 159.920, 98.323 160.432 C 100.366 161.161, 101.384 160.962, 102.970 159.527 C 107.860 155.102, 103.454 147.793, 97.280 150.088 M 183.500 155.031 C 149.797 160.295, 129.824 197.278, 144.100 227.986 C 147.543 235.390, 154.032 244.412, 157.095 246.051 C 160.582 247.917, 160.390 246.323, 156.680 242.614 C 151.234 237.167, 146.929 230.344, 144.374 223.107 C 141.297 214.388, 141.122 201.053, 143.964 191.855 C 149.738 173.174, 165.990 159.520, 185.305 157.124 C 188.072 156.781, 190.523 155.938, 190.752 155.250 C 191.204 153.888, 190.880 153.878, 183.500 155.031 M 95 175 C 93.828 175.758, 94.090 175.973, 96.203 175.985 C 100.070 176.007, 103.840 177.963, 104.713 180.402 C 105.126 181.556, 105.472 190.150, 105.482 199.500 C 105.497 213.577, 105.830 217.481, 107.418 222.205 C 109.766 229.187, 111.090 228.942, 109.748 221.773 C 109.182 218.750, 109.015 209.442, 109.357 199.959 C 109.878 185.512, 109.735 182.983, 108.227 179.973 C 105.658 174.847, 99.070 172.370, 95 175 M 184.077 199.077 C 181.548 201.606, 181 202.959, 181 206.677 C 181 210.487, 181.536 211.736, 184.400 214.600 C 190.266 220.466, 191 219.621, 191 207 C 191 196.813, 190.858 196, 189.077 196 C 188.019 196, 185.769 197.385, 184.077 199.077" stroke="none" fill="#090909" fill-rule="evenodd"/><path d="M 191 73.500 C 191 75.875, 191.288 76.001, 196.750 76.017 C 207.190 76.049, 221.155 77.975, 225.783 80.022 C 230.062 81.915, 232.678 84.407, 234.122 87.966 C 234.924 89.942, 232.535 94.643, 230.055 95.970 C 228.934 96.570, 220.387 97, 209.566 97 C 191.295 97, 191 97.034, 191 99.128 C 191 101.244, 191.091 101.252, 208.250 100.519 C 228.188 99.668, 231.852 98.796, 234.061 94.378 L 235.621 91.256 237.543 96.378 C 238.600 99.195, 239.619 101.950, 239.807 102.500 C 239.996 103.050, 239.160 102.019, 237.950 100.208 C 236.740 98.398, 235.557 97.110, 235.320 97.346 C 234.994 97.673, 246.281 127.454, 256.793 154 C 257.120 154.825, 254.782 152.693, 251.598 149.262 C 240.160 136.941, 227.066 129.143, 211.060 125.121 C 206.417 123.954, 200.005 123, 196.810 123 L 191 123 191 126.263 L 191 129.527 201.954 131.226 C 220.888 134.164, 235 141.237, 247.783 154.198 C 260.178 166.765, 265.914 177.799, 270.035 197 L 271.859 205.500 271.930 198.158 L 272 190.816 275.145 192.658 C 280.201 195.619, 282.500 199.476, 282.500 205 C 282.500 210.770, 280.168 214.439, 274.406 217.734 C 270.581 219.921, 270.558 219.967, 273.300 219.984 C 276.998 220.005, 281.285 217.709, 283.951 214.278 C 285.139 212.750, 285.677 212.405, 285.148 213.511 C 284.618 214.617, 283.356 216.252, 282.343 217.145 C 279.601 219.558, 272.370 223, 270.040 223 C 268.918 223, 268 223.506, 268 224.125 C 268 225.687, 273.420 224.501, 278.949 221.730 C 285.469 218.462, 289.233 213.231, 289.776 206.684 C 290.538 197.500, 285.382 190.176, 275.895 186.964 C 270.738 185.219, 270.714 185.190, 268.529 178.356 C 267.324 174.585, 265.326 169.537, 264.091 167.138 C 262.856 164.739, 260.343 157.294, 258.506 150.592 C 254.977 137.717, 249.694 123.463, 244.759 113.500 L 241.787 107.500 245.494 111.776 C 250.121 117.114, 252.146 118.151, 264.159 121.340 C 281.853 126.037, 288.236 130.611, 293.122 142.097 L 295.846 148.500 291.216 149.308 C 287.954 149.877, 285.859 149.729, 284.129 148.808 C 282.232 147.798, 281.580 147.776, 281.265 148.714 C 280.945 149.666, 280.434 149.666, 278.898 148.714 C 277.331 147.743, 276.770 147.771, 276.094 148.857 C 275.504 149.805, 275.043 149.879, 274.564 149.104 C 274.091 148.338, 273.299 148.305, 272.005 148.997 C 270.975 149.549, 268.639 150.007, 266.816 150.015 C 264.307 150.027, 263.865 150.267, 265 151 C 265.825 151.533, 267.689 151.976, 269.143 151.985 C 270.597 151.993, 272.045 152.675, 272.362 153.500 C 272.826 154.709, 271.974 155, 267.969 155 C 265.236 155, 263 155.382, 263 155.848 C 263 156.716, 279.406 158, 290.504 158 L 296.696 158 297.369 196.750 C 297.739 218.063, 298.405 237.525, 298.848 240 L 299.654 244.500 300.533 240.500 C 301.016 238.300, 301.431 217.825, 301.456 195 L 301.500 153.500 293.750 153.841 C 288.608 154.068, 286 153.816, 286 153.091 C 286 152.407, 288.609 152, 293 152 C 296.850 152, 300 151.799, 300 151.552 C 300 151.306, 298.571 147.156, 296.825 142.329 C 291.577 127.827, 284.561 122.324, 263.783 116.414 C 250.749 112.707, 248.259 110.055, 241.625 92.821 C 239.576 87.498, 237.015 82.018, 235.934 80.643 C 230.873 74.209, 219.639 71.097, 201.250 71.035 L 191 71 191 73.500 M 191 112.521 L 191 115.228 207.250 114.514 C 222.900 113.826, 228.338 112.799, 222.349 111.661 C 220.782 111.364, 213.088 110.826, 205.250 110.467 L 191 109.814 191 112.521 M 235.667 125.667 C 234.262 127.071, 235.084 130.975, 237 132 C 241.037 134.161, 244.987 129.387, 241.800 126.200 C 240.506 124.906, 236.753 124.580, 235.667 125.667 M 139 128.393 C 139 129.159, 139.675 130.045, 140.500 130.362 C 141.520 130.753, 142 130.308, 142 128.969 C 142 127.885, 141.325 127, 140.500 127 C 139.675 127, 139 127.627, 139 128.393 M 191 138 C 191 140.951, 191.085 141, 196.250 141.007 C 202.370 141.015, 215.446 143.972, 222.227 146.881 C 243.622 156.060, 260.542 176.628, 264.188 197.889 C 265.715 206.798, 266.919 205.350, 265.797 195.954 C 262.166 165.552, 234.528 139.734, 201.555 135.942 C 190.595 134.681, 191 134.602, 191 138 M 191 145.791 C 191 146.388, 193.137 147.137, 195.750 147.455 C 216.276 149.951, 228.286 155.311, 240.627 167.484 C 249.599 176.334, 253.857 183.474, 257.632 196 C 258.887 200.164, 259.917 202.358, 259.946 200.932 C 259.976 199.519, 259.282 195.919, 258.404 192.932 C 252.337 172.289, 235.177 155.327, 213 148.053 C 205.471 145.583, 191 144.095, 191 145.791 M 191 154.939 C 191 155.455, 193.137 156.165, 195.750 156.517 C 208.944 158.295, 218.990 163.029, 227.371 171.421 C 246.305 190.378, 246.921 221.458, 228.743 240.678 C 225.963 243.618, 224.026 246.355, 224.439 246.761 C 225.757 248.060, 235.775 236.258, 238.886 229.739 C 242.798 221.541, 243.946 216.287, 243.976 206.432 C 244.050 181.781, 226.772 160.661, 202.287 155.473 C 194.352 153.792, 191 153.633, 191 154.939 M 271 188.031 C 271 188.599, 271.563 189.205, 272.250 189.380 C 272.938 189.554, 274.966 190.177, 276.757 190.764 C 281.019 192.161, 279.903 190.404, 275.309 188.485 C 271.083 186.719, 271 186.710, 271 188.031 M 191 207 C 191 219.341, 191.406 219.879, 197.775 215.996 C 206.694 210.558, 203.183 196, 192.953 196 C 191.134 196, 191 196.755, 191 207 M 287.158 205 C 287.158 206.375, 287.385 206.938, 287.662 206.250 C 287.940 205.563, 287.940 204.438, 287.662 203.750 C 287.385 203.063, 287.158 203.625, 287.158 205" stroke="none" fill="#d78237" fill-rule="evenodd"/></svg>